<svg width="386" height="62" viewBox="0 0 386 62" fill="none" xmlns="http://www.w3.org/2000/svg">
<path fill-rule="evenodd" clip-rule="evenodd" d="M45.6203 15.54L45.2543 15.854C43.8475 17.0574 41.7978 17.1357 40.3033 16.043C37.3368 13.7895 33.7254 12.5476 30.0003 12.5C26.2763 12.5482 22.666 13.7901 19.7003 16.043C18.2058 17.1357 16.1562 17.0574 14.7493 15.854L14.3833 15.54C18.0593 10.5818 23.8291 7.61143 30.0003 7.5C36.1726 7.61051 41.9436 10.581 45.6203 15.54Z" fill="#B8FF99"/>
<path fill-rule="evenodd" clip-rule="evenodd" d="M20.93 52.75C21.1578 53.9219 20.8487 55.1341 20.0877 56.0539C19.3267 56.9737 18.1938 57.5043 17 57.5H13.01C8.58919 57.5022 5.00331 53.9208 5 49.5V39.5C5.00331 35.0792 8.58919 31.4978 13.01 31.5H17C18.1938 31.4958 19.3267 32.0264 20.0877 32.9461C20.8487 33.8659 21.1578 35.0782 20.93 36.25C20.3832 38.9675 20.0819 41.7286 20.03 44.5C20.0819 47.2715 20.3832 50.0326 20.93 52.75Z" fill="#4CAF50"/>
<path fill-rule="evenodd" clip-rule="evenodd" d="M55.0004 39.5V49.5C54.9971 53.9208 51.4112 57.5022 46.9904 57.5H43.0004C41.8066 57.5043 40.6737 56.9737 39.9127 56.0539C39.1517 55.1341 38.8426 53.9219 39.0704 52.75C39.6172 50.0326 39.9184 47.2715 39.9704 44.5C39.9184 41.7286 39.6172 38.9675 39.0704 36.25C38.8426 35.0782 39.1517 33.8659 39.9127 32.9461C40.6737 32.0264 41.8066 31.4958 43.0004 31.5H46.9904C51.4112 31.4978 54.9971 35.0792 55.0004 39.5Z" fill="#4CAF50"/>
<path fill-rule="evenodd" clip-rule="evenodd" d="M56.8802 25.52C56.6171 25.8073 56.3015 26.0415 55.9502 26.21C55.6793 26.3402 55.3887 26.4247 55.0902 26.46C53.7878 26.6527 52.5126 25.9704 51.9502 24.78C50.3709 21.3682 48.2313 18.245 45.6202 15.54C41.1802 11.02 35.7402 8.5 30.0002 8.5C24.2602 8.5 18.8102 11.02 14.3802 15.54C11.7692 18.245 9.62957 21.3682 8.05022 24.78C7.55573 25.834 6.49443 26.5051 5.33022 26.5C5.17927 26.5016 5.02853 26.4882 4.88022 26.46C4.59235 26.4198 4.3124 26.3355 4.05022 26.21C3.68681 26.0389 3.36321 25.7936 3.10022 25.49C2.29918 24.5942 2.11391 23.3052 2.63022 22.22C8.47022 9.87 18.7002 2.5 30.0002 2.5C41.3002 2.5 51.5302 9.87 57.3802 22.22C57.8934 23.3203 57.6963 24.6211 56.8802 25.52Z" fill="#4CAF50"/>
<path fill-rule="evenodd" clip-rule="evenodd" d="M5.00017 42.46V44.46H4.99017C3.6599 44.4605 2.39173 43.8973 1.50017 42.91C0.537236 41.854 0.0587749 40.444 0.180167 39.02C0.535674 34.3985 1.51801 29.8468 3.10017 25.49C3.36316 25.7936 3.68675 26.0389 4.05017 26.21C4.31234 26.3355 4.5923 26.4198 4.88017 26.46C3.41933 30.5618 2.50808 34.839 2.17017 39.18C2.09558 40.0499 2.38528 40.9118 2.97017 41.56C3.48775 42.1296 4.22051 42.4561 4.99017 42.46H5.00017Z" fill="#B8FF99"/>
<path fill-rule="evenodd" clip-rule="evenodd" d="M59.83 40.09C59.9408 41.5132 59.4555 42.9185 58.49 43.97C57.5986 44.9493 56.3342 45.5052 55.01 45.5L55 45.5001V43.5C55.7712 43.4995 56.5071 43.1769 57.03 42.61C57.6134 41.9644 57.9062 41.1076 57.84 40.24C57.5042 35.5496 56.5803 30.92 55.09 26.46C55.3885 26.4247 55.6791 26.3402 55.95 26.21C56.3012 26.0415 56.6169 25.8073 56.88 25.52C58.4879 30.2291 59.4795 35.1264 59.83 40.09Z" fill="#B8FF99"/>
<path fill-rule="evenodd" clip-rule="evenodd" d="M9 48.5C8.44772 48.5 8 48.0523 8 47.5V40.5C8 39.9477 8.44772 39.5 9 39.5C9.55228 39.5 10 39.9477 10 40.5V47.5C10 48.0523 9.55228 48.5 9 48.5Z" fill="#B9FF94"/>
<path fill-rule="evenodd" clip-rule="evenodd" d="M10.3614 53.5C10.1188 53.4997 9.8846 53.4112 9.70241 53.251C9.2937 52.8929 8.94643 52.4703 8.67441 52C8.4732 51.69 8.45934 51.2944 8.63835 50.9711C8.81736 50.6478 9.16007 50.4496 9.52955 50.4556C9.89904 50.4617 10.2351 50.671 10.4034 51C10.5676 51.2823 10.7767 51.5359 11.0224 51.751C11.3335 52.0262 11.4421 52.465 11.2953 52.8535C11.1484 53.242 10.7767 53.4993 10.3614 53.5Z" fill="#B9FF94"/>
<path fill-rule="evenodd" clip-rule="evenodd" d="M12.0003 54.371C11.9153 54.3711 11.8306 54.3603 11.7483 54.339C10.99 54.1408 10.2887 53.7679 9.70034 53.25C9.42231 53.0166 9.29259 52.6509 9.36143 52.2945C9.43027 51.938 9.68685 51.6469 10.0318 51.5338C10.3767 51.4208 10.7559 51.5035 11.0223 51.75C11.3754 52.0607 11.7963 52.2843 12.2513 52.403C12.7386 52.5293 13.056 52.9982 12.9924 53.4975C12.9287 53.9969 12.5037 54.371 12.0003 54.371Z" fill="#B9FF94"/>
<path fill-rule="evenodd" clip-rule="evenodd" d="M43.8423 48.5C43.8143 48.5 43.7873 48.5 43.7603 48.5C43.4958 48.4786 43.2507 48.353 43.0789 48.1508C42.9071 47.9486 42.8227 47.6865 42.8443 47.422C42.9283 46.4 42.9703 45.422 42.9703 44.503C42.9601 42.8722 42.8505 41.2435 42.6423 39.626C42.591 39.0872 42.9776 38.6054 43.5147 38.5388C44.0518 38.4722 44.5444 38.845 44.6263 39.38C44.8452 41.0781 44.9601 42.7879 44.9703 44.5C44.9703 45.47 44.9253 46.507 44.8383 47.581C44.7961 48.0999 44.3629 48.4997 43.8423 48.5Z" fill="#B9FF94"/>
<path fill-rule="evenodd" clip-rule="evenodd" d="M43.0003 54.5C42.9369 54.4999 42.8736 54.4939 42.8113 54.482C42.2695 54.3781 41.9142 53.855 42.0173 53.313C42.0803 52.979 42.1413 52.651 42.1983 52.325C42.3004 51.7869 42.8165 51.431 43.3558 51.5269C43.8951 51.6228 44.2569 52.1346 44.1673 52.675C44.1073 53.009 44.0473 53.347 43.9813 53.688C43.8912 54.1588 43.4797 54.4995 43.0003 54.5Z" fill="#B9FF94"/>
<path d="M89.1605 50V13.6364H103.507C106.265 13.6364 108.615 14.1631 110.556 15.2166C112.497 16.2583 113.977 17.7083 114.995 19.5668C116.025 21.4134 116.54 23.544 116.54 25.9588C116.54 28.3736 116.019 30.5043 114.977 32.3509C113.936 34.1974 112.426 35.6357 110.45 36.6655C108.485 37.6953 106.105 38.2102 103.312 38.2102H94.1676V32.049H102.069C103.549 32.049 104.768 31.7945 105.727 31.2855C106.697 30.7647 107.419 30.0485 107.893 29.1371C108.378 28.2138 108.621 27.1544 108.621 25.9588C108.621 24.7514 108.378 23.6979 107.893 22.7983C107.419 21.8868 106.697 21.1825 105.727 20.6854C104.756 20.1764 103.525 19.9219 102.033 19.9219H96.8487V50H89.1605ZM133.275 50.5327C130.516 50.5327 128.131 49.9467 126.119 48.7749C124.118 47.5911 122.574 45.9458 121.485 43.8388C120.396 41.7199 119.851 39.2637 119.851 36.4702C119.851 33.6529 120.396 31.1908 121.485 29.0838C122.574 26.965 124.118 25.3196 126.119 24.1477C128.131 22.964 130.516 22.3722 133.275 22.3722C136.033 22.3722 138.412 22.964 140.412 24.1477C142.425 25.3196 143.975 26.965 145.064 29.0838C146.153 31.1908 146.698 33.6529 146.698 36.4702C146.698 39.2637 146.153 41.7199 145.064 43.8388C143.975 45.9458 142.425 47.5911 140.412 48.7749C138.412 49.9467 136.033 50.5327 133.275 50.5327ZM133.31 44.6733C134.565 44.6733 135.612 44.3182 136.453 43.608C137.293 42.8859 137.926 41.9034 138.353 40.6605C138.791 39.4176 139.01 38.0031 139.01 36.4169C139.01 34.8307 138.791 33.4162 138.353 32.1733C137.926 30.9304 137.293 29.9479 136.453 29.2259C135.612 28.5038 134.565 28.1428 133.31 28.1428C132.043 28.1428 130.978 28.5038 130.114 29.2259C129.262 29.9479 128.617 30.9304 128.179 32.1733C127.752 33.4162 127.539 34.8307 127.539 36.4169C127.539 38.0031 127.752 39.4176 128.179 40.6605C128.617 41.9034 129.262 42.8859 130.114 43.608C130.978 44.3182 132.043 44.6733 133.31 44.6733ZM161.666 50.4439C159.594 50.4439 157.718 49.9112 156.037 48.8459C154.368 47.7687 153.042 46.1884 152.06 44.1051C151.089 42.0099 150.604 39.4413 150.604 36.3991C150.604 33.2741 151.107 30.6759 152.113 28.6044C153.119 26.5211 154.457 24.9645 156.126 23.9347C157.807 22.893 159.648 22.3722 161.648 22.3722C163.175 22.3722 164.448 22.6326 165.466 23.1534C166.495 23.6624 167.324 24.3016 167.951 25.071C168.591 25.8286 169.076 26.5743 169.407 27.3082H169.638V13.6364H177.184V50H169.727V45.6321H169.407C169.052 46.3897 168.549 47.1413 167.898 47.8871C167.259 48.621 166.424 49.2306 165.395 49.7159C164.377 50.2012 163.134 50.4439 161.666 50.4439ZM164.063 44.4247C165.282 44.4247 166.312 44.0933 167.152 43.4304C168.005 42.7557 168.656 41.8146 169.105 40.6072C169.567 39.3999 169.798 37.9853 169.798 36.3636C169.798 34.742 169.573 33.3333 169.123 32.1378C168.673 30.9422 168.022 30.0189 167.17 29.3679C166.318 28.7169 165.282 28.3913 164.063 28.3913C162.82 28.3913 161.772 28.7287 160.92 29.4034C160.068 30.0781 159.423 31.0133 158.985 32.2088C158.547 33.4044 158.328 34.7893 158.328 36.3636C158.328 37.9498 158.547 39.3525 158.985 40.5717C159.435 41.7791 160.08 42.7261 160.92 43.4126C161.772 44.0874 162.82 44.4247 164.063 44.4247ZM195.726 50.5327C192.932 50.5327 190.529 49.9408 188.517 48.7571C186.516 47.5616 184.978 45.9044 183.9 43.7855C182.835 41.6667 182.302 39.2282 182.302 36.4702C182.302 33.6766 182.841 31.2263 183.918 29.1193C185.007 27.0005 186.552 25.3492 188.552 24.1655C190.553 22.9699 192.932 22.3722 195.69 22.3722C198.069 22.3722 200.153 22.8042 201.94 23.6683C203.728 24.5324 205.142 25.7457 206.184 27.3082C207.225 28.8707 207.8 30.7055 207.906 32.8125H200.768C200.567 31.4512 200.034 30.3563 199.17 29.5277C198.318 28.6873 197.199 28.267 195.814 28.267C194.643 28.267 193.619 28.5866 192.743 29.2259C191.879 29.8532 191.204 30.7706 190.719 31.978C190.233 33.1854 189.991 34.6473 189.991 36.3636C189.991 38.1037 190.227 39.5833 190.701 40.8026C191.186 42.0218 191.867 42.951 192.743 43.5902C193.619 44.2294 194.643 44.549 195.814 44.549C196.679 44.549 197.454 44.3714 198.14 44.0163C198.839 43.6612 199.413 43.1463 199.863 42.4716C200.324 41.785 200.626 40.9624 200.768 40.0036H207.906C207.788 42.0869 207.22 43.9216 206.202 45.5078C205.195 47.0821 203.805 48.3132 202.029 49.201C200.253 50.0888 198.152 50.5327 195.726 50.5327ZM220.526 50.5149C218.786 50.5149 217.235 50.2131 215.874 49.6094C214.513 48.9938 213.435 48.0883 212.642 46.8928C211.861 45.6854 211.471 44.1821 211.471 42.3828C211.471 40.8677 211.749 39.5952 212.305 38.5653C212.861 37.5355 213.619 36.7069 214.578 36.0795C215.537 35.4522 216.626 34.9787 217.845 34.6591C219.076 34.3395 220.366 34.1146 221.716 33.9844C223.302 33.8187 224.58 33.6648 225.551 33.5227C226.521 33.3688 227.226 33.1439 227.664 32.848C228.102 32.5521 228.321 32.1141 228.321 31.5341V31.4276C228.321 30.303 227.966 29.433 227.255 28.8175C226.557 28.2019 225.563 27.8942 224.272 27.8942C222.911 27.8942 221.828 28.196 221.023 28.7997C220.218 29.3916 219.685 30.1373 219.425 31.0369L212.429 30.4688C212.784 28.8116 213.483 27.3793 214.525 26.1719C215.566 24.9527 216.91 24.0175 218.555 23.3665C220.212 22.7036 222.13 22.3722 224.308 22.3722C225.823 22.3722 227.273 22.5497 228.658 22.9048C230.055 23.2599 231.292 23.8104 232.369 24.5561C233.458 25.3018 234.316 26.2607 234.944 27.4325C235.571 28.5926 235.885 29.9834 235.885 31.6051V50H228.711V46.218H228.498C228.06 47.0703 227.474 47.822 226.74 48.473C226.007 49.1122 225.125 49.6153 224.095 49.9822C223.065 50.3374 221.875 50.5149 220.526 50.5149ZM222.692 45.2947C223.805 45.2947 224.787 45.0758 225.64 44.6378C226.492 44.188 227.161 43.5843 227.646 42.8267C228.131 42.0691 228.374 41.2109 228.374 40.2521V37.358C228.137 37.5118 227.812 37.6539 227.397 37.7841C226.995 37.9025 226.539 38.0149 226.03 38.1214C225.521 38.2161 225.012 38.3049 224.503 38.3878C223.994 38.4588 223.533 38.5239 223.118 38.5831C222.23 38.7133 221.455 38.9205 220.792 39.2045C220.129 39.4886 219.614 39.8733 219.248 40.3587C218.881 40.8321 218.697 41.424 218.697 42.1342C218.697 43.1641 219.07 43.9512 219.816 44.4957C220.573 45.0284 221.532 45.2947 222.692 45.2947ZM264.445 30.5043L257.52 30.9304C257.402 30.3385 257.147 29.8059 256.756 29.3324C256.366 28.8471 255.851 28.4624 255.212 28.1783C254.584 27.8823 253.833 27.7344 252.957 27.7344C251.785 27.7344 250.796 27.983 249.991 28.4801C249.187 28.9654 248.784 29.6165 248.784 30.4332C248.784 31.0843 249.045 31.6347 249.565 32.0845C250.086 32.5343 250.98 32.8954 252.246 33.1676L257.183 34.1619C259.834 34.7064 261.811 35.5824 263.113 36.7898C264.415 37.9972 265.066 39.5833 265.066 41.5483C265.066 43.3357 264.539 44.9041 263.486 46.2536C262.444 47.603 261.012 48.6565 259.189 49.4141C257.378 50.1598 255.289 50.5327 252.921 50.5327C249.311 50.5327 246.434 49.781 244.292 48.2777C242.161 46.7625 240.912 44.7029 240.545 42.0987L247.985 41.7081C248.21 42.8089 248.754 43.6494 249.619 44.2294C250.483 44.7976 251.589 45.0817 252.939 45.0817C254.265 45.0817 255.33 44.8272 256.135 44.3182C256.952 43.7973 257.366 43.1286 257.378 42.3118C257.366 41.6252 257.076 41.063 256.508 40.625C255.94 40.1752 255.064 39.8319 253.88 39.5952L249.157 38.6541C246.494 38.1214 244.511 37.1982 243.209 35.8842C241.919 34.5703 241.273 32.8954 241.273 30.8594C241.273 29.1075 241.747 27.5982 242.694 26.3317C243.653 25.0651 244.996 24.0885 246.724 23.402C248.464 22.7154 250.5 22.3722 252.832 22.3722C256.277 22.3722 258.988 23.1001 260.964 24.5561C262.953 26.0121 264.113 27.9948 264.445 30.5043ZM284.335 22.7273V28.4091H267.911V22.7273H284.335ZM271.64 16.1932H279.204V41.6193C279.204 42.3177 279.311 42.8622 279.524 43.2528C279.737 43.6316 280.033 43.898 280.411 44.0518C280.802 44.2057 281.252 44.2827 281.761 44.2827C282.116 44.2827 282.471 44.2531 282.826 44.1939C283.181 44.1229 283.454 44.0696 283.643 44.0341L284.833 49.6626C284.454 49.781 283.921 49.9171 283.235 50.071C282.548 50.2367 281.713 50.3374 280.731 50.3729C278.908 50.4439 277.31 50.2012 275.937 49.6449C274.576 49.0885 273.516 48.2244 272.759 47.0526C272.001 45.8807 271.628 44.401 271.64 42.6136V16.1932ZM313.517 25.3906C313.268 24.5265 312.919 23.763 312.469 23.1001C312.019 22.4254 311.469 21.8572 310.818 21.3956C310.179 20.9221 309.445 20.5611 308.616 20.3125C307.8 20.0639 306.894 19.9396 305.9 19.9396C304.041 19.9396 302.408 20.4013 300.999 21.3246C299.602 22.2479 298.513 23.5914 297.732 25.3551C296.951 27.107 296.56 29.2495 296.56 31.7827C296.56 34.3158 296.945 36.4702 297.714 38.2457C298.484 40.0213 299.573 41.3767 300.981 42.3118C302.39 43.2351 304.053 43.6967 305.971 43.6967C307.711 43.6967 309.196 43.389 310.427 42.7734C311.67 42.1461 312.617 41.2642 313.268 40.1278C313.931 38.9915 314.263 37.648 314.263 36.0973L315.825 36.3281H306.45V30.5398H321.667V35.1207C321.667 38.3168 320.992 41.063 319.643 43.3594C318.293 45.6439 316.435 47.4077 314.067 48.6506C311.7 49.8816 308.989 50.4972 305.935 50.4972C302.526 50.4972 299.531 49.7455 296.951 48.2422C294.37 46.727 292.358 44.5786 290.914 41.7969C289.482 39.0033 288.765 35.6889 288.765 31.8537C288.765 28.9062 289.192 26.2784 290.044 23.9702C290.908 21.6501 292.115 19.6851 293.666 18.0753C295.217 16.4654 297.022 15.2403 299.081 14.3999C301.141 13.5594 303.372 13.1392 305.775 13.1392C307.835 13.1392 309.753 13.4411 311.528 14.0447C313.304 14.6366 314.878 15.477 316.251 16.5661C317.636 17.6551 318.767 18.9512 319.643 20.4545C320.519 21.946 321.081 23.5914 321.329 25.3906H313.517ZM339.729 50.5327C336.923 50.5327 334.509 49.9645 332.484 48.8281C330.472 47.6799 328.921 46.0582 327.832 43.9631C326.743 41.8561 326.199 39.3643 326.199 36.4879C326.199 33.6825 326.743 31.2204 327.832 29.1016C328.921 26.9827 330.454 25.3314 332.431 24.1477C334.42 22.964 336.752 22.3722 339.427 22.3722C341.226 22.3722 342.901 22.6622 344.452 23.2422C346.014 23.8104 347.375 24.6686 348.536 25.8168C349.707 26.965 350.619 28.4091 351.27 30.1491C351.921 31.8774 352.246 33.9015 352.246 36.2216V38.299H329.217V33.6115H345.126C345.126 32.5225 344.89 31.5578 344.416 30.7173C343.943 29.8769 343.286 29.2199 342.445 28.7464C341.617 28.2611 340.652 28.0185 339.551 28.0185C338.403 28.0185 337.385 28.2848 336.497 28.8175C335.621 29.3383 334.935 30.0426 334.438 30.9304C333.94 31.8063 333.686 32.7829 333.674 33.8601V38.3168C333.674 39.6662 333.923 40.8321 334.42 41.8146C334.929 42.7971 335.645 43.5547 336.568 44.0874C337.491 44.62 338.586 44.8864 339.853 44.8864C340.693 44.8864 341.463 44.768 342.161 44.5312C342.86 44.2945 343.457 43.9394 343.955 43.4659C344.452 42.9924 344.83 42.4124 345.091 41.7259L352.087 42.1875C351.732 43.8684 351.004 45.3362 349.903 46.5909C348.814 47.8338 347.405 48.8045 345.677 49.5028C343.96 50.1894 341.978 50.5327 339.729 50.5327ZM364.746 34.233V50H357.183V22.7273H364.391V27.5391H364.711C365.315 25.9529 366.327 24.6982 367.747 23.7749C369.168 22.8397 370.89 22.3722 372.914 22.3722C374.808 22.3722 376.459 22.7865 377.868 23.6151C379.277 24.4437 380.371 25.6274 381.153 27.1662C381.934 28.6932 382.325 30.5161 382.325 32.6349V50H374.761V33.9844C374.772 32.3153 374.346 31.0133 373.482 30.0781C372.618 29.1312 371.429 28.6577 369.913 28.6577C368.895 28.6577 367.996 28.8767 367.214 29.3146C366.445 29.7526 365.841 30.3918 365.403 31.2322C364.977 32.0608 364.758 33.0611 364.746 34.233Z" fill="white"/>
</svg>
